<svg width="84" height="84" viewBox="0 0 84 84" fill="none" xmlns="http://www.w3.org/2000/svg">
<path d="M21.0002 66.5C21.0002 70.35 24.1502 73.5 28.0002 73.5H56.0002C59.8502 73.5 63.0002 70.35 63.0002 66.5V31.5C63.0002 27.65 59.8502 24.5 56.0002 24.5H28.0002C24.1502 24.5 21.0002 27.65 21.0002 31.5V66.5ZM63.0002 14H54.2502L51.7652 11.515C51.1352 10.885 50.2252 10.5 49.3152 10.5H34.6852C33.7752 10.5 32.8652 10.885 32.2352 11.515L29.7502 14H21.0002C19.0752 14 17.5002 15.575 17.5002 17.5C17.5002 19.425 19.0752 21 21.0002 21H63.0002C64.9252 21 66.5002 19.425 66.5002 17.5C66.5002 15.575 64.9252 14 63.0002 14Z" fill="white"/>
</svg>
