<svg width="94" height="94" viewBox="0 0 94 94" fill="none" xmlns="http://www.w3.org/2000/svg">
<path d="M66.5833 11.75H19.5833C15.2358 11.75 11.75 15.275 11.75 19.5833V74.4167C11.75 78.725 15.2358 82.25 19.5833 82.25H74.4167C78.725 82.25 82.25 78.725 82.25 74.4167V27.4167L66.5833 11.75ZM47 74.4167C40.4983 74.4167 35.25 69.1683 35.25 62.6667C35.25 56.165 40.4983 50.9167 47 50.9167C53.5017 50.9167 58.75 56.165 58.75 62.6667C58.75 69.1683 53.5017 74.4167 47 74.4167ZM58.75 35.25H19.5833V19.5833H58.75V35.25Z" fill="white"/>
</svg>
